<?xml version="1.0" encoding="utf-8"?>
<!-- Generator: Adobe Illustrator 24.0.1, SVG Export Plug-In . SVG Version: 6.00 Build 0)  -->
<svg version="1.1" xmlns="http://www.w3.org/2000/svg" xmlns:xlink="http://www.w3.org/1999/xlink" x="0px" y="0px"
	 viewBox="0 0 208 370" style="enable-background:new 0 0 208 370;" xml:space="preserve">
<style type="text/css">
	.st0{fill:#747682;}
	.st1{fill:#87402A;}
	.st2{enable-background:new    ;}
	.st3{fill-rule:evenodd;clip-rule:evenodd;fill:#ADD8E6;}
</style>
<g id="Groupe_1_xA0_Image_1_">
	<g>
		<path class="st0" d="M196,60c0,88,0,176,0,264c-61.3,0-122.7,0-184,0c0-88,0-176,0-264l92-46L196,60z"/>
	</g>
</g>
<g id="Calque_2_copie_4_xA0_Image_1_">
	<path class="st1" d="M194,58c0-0.6,0-1.2,0-2c-1.5,0-2.8,0-4,0c0-0.6,0-1.2,0-2c-1.5,0-2.8,0-4,0c0-0.6,0-1.2,0-2c-1.5,0-2.8,0-4,0
		c0-0.6,0-1.2,0-2c-1.5,0-2.8,0-4,0c0-0.6,0-1.2,0-2c-1.5,0-2.8,0-4,0c0-0.6,0-1.2,0-2c-1.5,0-2.8,0-4,0c0-0.6,0-1.2,0-2
		c-1.5,0-2.8,0-4,0c0-0.6,0-1.2,0-2c-1.5,0-2.8,0-4,0c0-0.6,0-1.2,0-2c-1.5,0-2.8,0-4,0c0-0.6,0-1.2,0-2c-1.5,0-2.8,0-4,0
		c0-0.6,0-1.2,0-2c-1.5,0-2.8,0-4,0c0-0.6,0-1.2,0-2c-1.5,0-2.8,0-4,0c0-0.6,0-1.2,0-2c-1.5,0-2.8,0-4,0c0-0.6,0-1.2,0-2
		c-1.5,0-2.8,0-4,0c0-0.6,0-1.2,0-2c-1.5,0-2.8,0-4,0c0-0.6,0-1.2,0-2c-1.5,0-2.8,0-4,0c0-0.6,0-1.2,0-2c-1.5,0-2.8,0-4,0
		c0-0.6,0-1.2,0-2c-1.5,0-2.8,0-4,0c0-0.6,0-1.2,0-2c-1.5,0-2.8,0-4,0c0-0.6,0-1.2,0-2c-1.5,0-2.8,0-4,0c0-0.6,0-1.2,0-2
		c-1.5,0-2.8,0-4,0c0-0.6,0-1.2,0-2c-1.5,0-2.8,0-4,0c0-0.7,0-1.3,0-2c-1.3,0-2.7,0-4,0c0,0.7,0,1.3,0,2c-1.2,0-2.5,0-4,0
		c0,0.8,0,1.4,0,2c-1.2,0-2.5,0-4,0c0,0.8,0,1.4,0,2c-1.2,0-2.5,0-4,0c0,0.8,0,1.4,0,2c-1.2,0-2.5,0-4,0c0,0.8,0,1.4,0,2
		c-1.2,0-2.5,0-4,0c0,0.8,0,1.4,0,2c-1.2,0-2.5,0-4,0c0,0.8,0,1.4,0,2c-1.2,0-2.5,0-4,0c0,0.8,0,1.4,0,2c-1.2,0-2.5,0-4,0
		c0,0.8,0,1.4,0,2c-1.2,0-2.5,0-4,0c0,0.8,0,1.4,0,2c-1.2,0-2.5,0-4,0c0,0.8,0,1.4,0,2c-1.2,0-2.5,0-4,0c0,0.8,0,1.4,0,2
		c-1.2,0-2.5,0-4,0c0,0.8,0,1.4,0,2c-1.2,0-2.5,0-4,0c0,0.8,0,1.4,0,2c-1.2,0-2.5,0-4,0c0,0.8,0,1.4,0,2c-1.2,0-2.5,0-4,0
		c0,0.8,0,1.4,0,2c-1.2,0-2.5,0-4,0c0,0.8,0,1.4,0,2c-1.2,0-2.5,0-4,0c0,0.8,0,1.4,0,2c-1.2,0-2.5,0-4,0c0,0.8,0,1.4,0,2
		c-1.2,0-2.5,0-4,0c0,0.8,0,1.4,0,2c-1.2,0-2.5,0-4,0c0,0.8,0,1.4,0,2c-1.2,0-2.5,0-4,0c0,0.8,0,1.4,0,2c-1.2,0-2.5,0-4,0
		c0,0.8,0,1.4,0,2c-1.3,0-2.7,0-4,0c0,0.7,0,1.3,0,2s0,1.3,0,2c1.3,0,2.7,0,4,0c0-0.7,0-1.3,0-2c1.2,0,2.5,0,4,0c0-0.8,0-1.4,0-2
		c1.2,0,2.5,0,4,0c0-0.8,0-1.4,0-2c1.2,0,2.5,0,4,0c0-0.8,0-1.4,0-2c1.2,0,2.5,0,4,0c0-0.8,0-1.4,0-2c1.2,0,2.5,0,4,0
		c0-0.8,0-1.4,0-2c1.2,0,2.5,0,4,0c0-0.8,0-1.4,0-2c1.2,0,2.5,0,4,0c0-0.8,0-1.4,0-2c1.2,0,2.5,0,4,0c0-0.8,0-1.4,0-2
		c1.2,0,2.5,0,4,0c0-0.8,0-1.4,0-2c1.2,0,2.5,0,4,0c0-0.8,0-1.4,0-2c1.2,0,2.5,0,4,0c0-0.8,0-1.4,0-2c1.2,0,2.5,0,4,0
		c0-0.8,0-1.4,0-2c1.2,0,2.5,0,4,0c0-0.8,0-1.4,0-2c1.2,0,2.5,0,4,0c0-0.8,0-1.4,0-2c1.2,0,2.5,0,4,0c0-0.8,0-1.4,0-2
		c1.2,0,2.5,0,4,0c0-0.8,0-1.4,0-2c1.2,0,2.5,0,4,0c0-0.8,0-1.4,0-2c1.2,0,2.5,0,4,0c0-0.8,0-1.4,0-2c1.2,0,2.5,0,4,0
		c0-0.8,0-1.4,0-2c1.2,0,2.5,0,4,0c0-0.8,0-1.4,0-2c1.2,0,2.5,0,4,0c0-0.8,0-1.4,0-2c1.2,0,2.5,0,4,0c0-0.8,0-1.4,0-2
		c1.3,0,2.7,0,4,0c0,0.6,0,1.2,0,2c1.5,0,2.8,0,4,0c0,0.6,0,1.2,0,2c1.5,0,2.8,0,4,0c0,0.6,0,1.2,0,2c1.5,0,2.8,0,4,0
		c0,0.6,0,1.2,0,2c1.5,0,2.8,0,4,0c0,0.6,0,1.2,0,2c1.5,0,2.8,0,4,0c0,0.6,0,1.2,0,2c1.5,0,2.8,0,4,0c0,0.6,0,1.2,0,2
		c1.5,0,2.8,0,4,0c0,0.6,0,1.2,0,2c1.5,0,2.8,0,4,0c0,0.6,0,1.2,0,2c1.5,0,2.8,0,4,0c0,0.6,0,1.2,0,2c1.5,0,2.8,0,4,0
		c0,0.6,0,1.2,0,2c1.5,0,2.8,0,4,0c0,0.6,0,1.2,0,2c1.5,0,2.8,0,4,0c0,0.6,0,1.2,0,2c1.5,0,2.8,0,4,0c0,0.6,0,1.2,0,2
		c1.5,0,2.8,0,4,0c0,0.6,0,1.2,0,2c1.5,0,2.8,0,4,0c0,0.6,0,1.2,0,2c1.5,0,2.8,0,4,0c0,0.6,0,1.2,0,2c1.5,0,2.8,0,4,0
		c0,0.6,0,1.2,0,2c1.5,0,2.8,0,4,0c0,0.6,0,1.2,0,2c1.5,0,2.8,0,4,0c0,0.6,0,1.2,0,2c1.5,0,2.8,0,4,0c0,0.6,0,1.2,0,2
		c1.5,0,2.8,0,4,0c0,0.6,0,1.2,0,2c1.5,0,2.8,0,4,0c0,0.7,0,1.3,0,2c1.3,0,2.7,0,4,0c0-0.7,0-1.3,0-2s0-1.3,0-2
		C196.7,58,195.3,58,194,58z"/>
</g>
<g id="Rectangle_1_copie_1_" class="st2">
	<g id="Rectangle_1_copie">
		<g>
			<rect x="16" y="64" class="st3" width="176" height="256"/>
		</g>
	</g>
</g>
</svg>
