<?xml version="1.0" encoding="utf-8"?>
<!-- Generator: Adobe Illustrator 24.0.1, SVG Export Plug-In . SVG Version: 6.00 Build 0)  -->
<svg version="1.1" id="Calque_1" xmlns="http://www.w3.org/2000/svg" xmlns:xlink="http://www.w3.org/1999/xlink" x="0px" y="0px"
	 viewBox="0 0 16 16" style="enable-background:new 0 0 16 16;" xml:space="preserve">
<style type="text/css">
	.st0{fill:#FFFFFF;}
</style>
<path d="M16,7c0,3,0,6,0,9c-5.3,0-10.7,0-16,0c0-3,0-6,0-9c0.3,0,0.7,0,1,0c0,0,0,0,0,0c0,1,0,2,0,3c0.3,0,0.7,0,1,0
	c0,0.7,0,1.3,0,2c0.3,0,0.7,0,1,0c0,0.3,0,0.7,0,1c0.3,0,0.7,0,1,0c0,0,0,0,0-0.1c0-1,0-1.9,0-2.9c0,0,0,0,0,0C4,10,4,10,4.1,10
	c0.3,0,0.6,0,0.9,0C5,10,5,10,5,9.9c0-0.3,0-0.6,0-0.8C5,9,5,9,5.1,9C5.4,9,5.7,9,6,9c0,0.3,0,0.6,0,0.9C6,10,6,10,6.1,10
	c0.3,0,0.6,0,0.9,0C7,10,7,10,7,9.9c0-0.2,0-0.4,0-0.7C7,9.2,7,9.1,7,9c0.6,0,1.3,0,1.9,0C9,9,9,9,9,9.1c0,0.3,0,0.6,0,0.9
	C9,10,9,10,9.1,10c0.6,0,1.2,0,1.9,0c0,0,0,0,0.1,0c0,0.3,0,0.7,0,1c0.3,0,0.7,0,1,0c0,0.7,0,1.3,0,2c0.3,0,0.7,0,1,0
	c0-0.3,0-0.7,0-1c0.3,0,0.7,0,1,0c0-0.7,0-1.3,0-2c0,0,0,0,0.1,0c0.3,0,0.6,0,0.9,0C15,10,15,10,15,9.9c0-1,0-1.9,0-2.9
	C15,7,15,7,15.1,7C15.4,7,15.7,7,16,7C16,7,16,7,16,7z M10,13c0-0.3,0-0.7,0-1c-1.3,0-2.7,0-4,0c0,0.3,0,0.7,0,1
	C7.3,13,8.7,13,10,13z"/>
<path d="M0,4C0,4,0.1,4,0,4c4.1,0,8,0,12,0c1.3,0,2.6,0,3.9,0c0,0,0,0,0.1,0c0,0.3,0,0.7,0,1c0,0,0,0-0.1,0c-0.6,0-1.2,0-1.9,0
	C14,5,14,5,14,5.1c0,0.6,0,1.2,0,1.9c0,0,0,0,0,0.1c-0.3,0-0.7,0-1,0c0-0.3,0-0.7,0-1c-1,0-2,0-3,0c0,0.3,0,0.7,0,1C9.7,7,9.3,7,9,7
	c0,0,0,0.1,0,0.1c0,0.3,0,0.6,0,0.9C9,8,9,8,8.9,8C8.6,8,8.4,8,8.1,8C8,8,8,8,8,7.9C8,7,8,6,8,5.1c0,0,0,0,0-0.1C7.7,5,7.3,5,7,5
	c0,0.7,0,1.3,0,2C6.9,7,6.7,7,6.6,7C6.4,7,6.2,7,6,7c0-0.3,0-0.7,0-1C5,6,4,6,3,6c0,0.3,0,0.7,0,1C2.7,7,2.3,7,2,7c0-0.7,0-1.3,0-2
	c0,0-0.1,0-0.1,0C1.3,5,0.7,5,0.1,5C0,5,0,5,0,5C0,4.7,0,4.3,0,4z"/>
<path d="M11,0c0,0.3,0,0.6,0,0.9c0,0,0,0.1,0,0.1l0,0c0,0,0,0-0.1,0c-0.6,0-1.2,0-1.9,0c0,0,0,0-0.1,0c0,0.3,0,0.7,0,1
	C8.3,2,7.7,2,7,2c0-0.3,0-0.7,0-1C6.7,1,6.3,1,6,1c0,0.7,0,1.3,0,2C5.3,3,4.7,3,4,3c0-0.3,0-0.7,0-1c0.3,0,0.7,0,1,0
	c0-0.3,0-0.7,0-1C4.3,1,3.7,1,3,1c0,0,0,0,0,0C3,0.6,3,0.3,3,0c0,0,0,0,0,0C5.7,0,8.3,0,11,0z"/>
<path d="M11,1c0.2,0,0.3,0,0.5,0c0.2,0,0.3,0,0.5,0c0,0.3,0,0.7,0,1c-0.3,0-0.7,0-1,0c0,0,0,0,0,0C11,1.7,11,1.3,11,1
	C11,1,11,1,11,1C11,1,11,1,11,1z"/>
<path class="st0" d="M3,7c0-0.3,0-0.7,0-1c1,0,2,0,3,0c0,0.3,0,0.7,0,1l0,0C5.3,7,4.7,7,4,7C3.7,7,3.3,7,3,7L3,7z"/>
<path class="st0" d="M10,7c0-0.3,0-0.7,0-1c1,0,2,0,3,0c0,0.3,0,0.7,0,1l0,0c-0.7,0-1.4,0-2,0C10.6,7,10.3,7,10,7L10,7z"/>
<path d="M3,7c0.3,0,0.7,0,1,0c0.7,0,1.3,0,2,0c0,0.1,0,0.1,0,0.2c0,0.2,0,0.5,0,0.7C6,8,6,8,6,8c0,0,0,0-0.1,0C5,8,4,8,3.1,8
	c0,0,0,0-0.1,0C3,7.7,3,7.3,3,7z"/>
<path d="M10,7c0.3,0,0.6,0,1,0c0.7,0,1.4,0,2,0c0,0.3,0,0.7,0,1c-1,0-2,0-3,0C10,7.7,10,7.3,10,7z"/>
<path d="M7,9C6.7,9,6.3,9,6,9c0-0.3,0-0.7,0-1c0.3,0,0.6,0,0.9,0C7,8,7,8,7,8.1C7,8.4,7,8.7,7,9z"/>
</svg>
